<?xml version="1.0" standalone="no"?><!DOCTYPE svg PUBLIC "-//W3C//DTD SVG 1.1//EN" "http://www.w3.org/Graphics/SVG/1.1/DTD/svg11.dtd"><svg t="1652786340748" class="icon" viewBox="0 0 1024 1024" version="1.1" xmlns="http://www.w3.org/2000/svg" p-id="1575" xmlns:xlink="http://www.w3.org/1999/xlink" width="16" height="16"><defs><style type="text/css">@font-face { font-family: feedback-iconfont; src: url("//at.alicdn.com/t/font_1031158_u69w8yhxdu.woff2?t=1630033759944") format("woff2"), url("//at.alicdn.com/t/font_1031158_u69w8yhxdu.woff?t=1630033759944") format("woff"), url("//at.alicdn.com/t/font_1031158_u69w8yhxdu.ttf?t=1630033759944") format("truetype"); }
</style></defs><path d="M867.90864 574.538232V257.779543a50.844091 50.844091 0 0 0-50.844092-50.844091h-610.129096a50.844091 50.844091 0 0 0-50.844092 50.844091v499.797418l430.141013-257.779543a152.532274 152.532274 0 0 1 157.108243 0z m0 118.466733l-177.445879-106.264151a50.844091 50.844091 0 0 0-50.844092 0L254.220457 817.064548h562.844091a50.844091 50.844091 0 0 0 50.844092-50.844091z m-660.973188-587.757696h610.129096a152.532274 152.532274 0 0 1 152.532274 152.532274v508.440914a152.532274 152.532274 0 0 1-152.532274 152.532274h-610.129096a152.532274 152.532274 0 0 1-152.532274-152.532274v-508.440914a152.532274 152.532274 0 0 1 152.532274-152.532274z m127.110228 355.90864a76.266137 76.266137 0 1 1 76.266137-76.266137 76.266137 76.266137 0 0 1-76.266137 76.266137z" fill="#666666" p-id="1576"></path></svg>